<svg width="302" height="30" viewBox="0 0 302 30" fill="none" xmlns="http://www.w3.org/2000/svg">
<g filter="url(#filter0_d_68_36)">
<path d="M29.6406 10.2756C29.5649 9.60322 29.2524 9.08239 28.7031 8.71307C28.1539 8.33902 27.4626 8.15199 26.6293 8.15199C26.0327 8.15199 25.5166 8.24669 25.081 8.43608C24.6454 8.62074 24.3068 8.87642 24.0653 9.20312C23.8286 9.52509 23.7102 9.89205 23.7102 10.304C23.7102 10.6496 23.7907 10.9479 23.9517 11.1989C24.1174 11.4498 24.3329 11.6605 24.598 11.831C24.8679 11.9967 25.1567 12.1364 25.4645 12.25C25.7723 12.3589 26.0682 12.4489 26.3523 12.5199L27.7727 12.8892C28.2367 13.0028 28.7126 13.1567 29.2003 13.3509C29.688 13.545 30.1402 13.8007 30.5568 14.1179C30.9735 14.4351 31.3097 14.8281 31.5653 15.2969C31.8258 15.7656 31.956 16.3267 31.956 16.9801C31.956 17.804 31.7429 18.5355 31.3168 19.1747C30.8954 19.8139 30.2822 20.3182 29.4773 20.6875C28.6771 21.0568 27.7088 21.2415 26.5724 21.2415C25.4834 21.2415 24.5412 21.0687 23.7457 20.723C22.9503 20.3774 22.3277 19.8873 21.8778 19.2528C21.428 18.6136 21.1795 17.8561 21.1321 16.9801H23.3338C23.3764 17.5057 23.5469 17.9437 23.8452 18.294C24.1482 18.6397 24.5341 18.8977 25.0028 19.0682C25.4763 19.2339 25.9948 19.3168 26.5582 19.3168C27.1785 19.3168 27.7301 19.2197 28.2131 19.0256C28.7008 18.8267 29.0843 18.5521 29.3636 18.2017C29.643 17.8466 29.7827 17.4323 29.7827 16.9588C29.7827 16.5279 29.6596 16.1752 29.4134 15.9006C29.1719 15.6259 28.8428 15.3987 28.4261 15.2188C28.0142 15.0388 27.5478 14.8802 27.027 14.7429L25.3082 14.2741C24.1435 13.9569 23.2202 13.4905 22.5384 12.875C21.8613 12.2595 21.5227 11.4451 21.5227 10.4318C21.5227 9.59375 21.75 8.86222 22.2045 8.23722C22.6591 7.61222 23.2746 7.12689 24.0511 6.78125C24.8277 6.43087 25.7036 6.25568 26.679 6.25568C27.6638 6.25568 28.5327 6.4285 29.2855 6.77415C30.0431 7.11979 30.6397 7.59564 31.0753 8.2017C31.5109 8.80303 31.7382 9.49432 31.7571 10.2756H29.6406ZM43.0827 21.2415C42.3915 21.2415 41.7665 21.1136 41.2077 20.858C40.649 20.5975 40.2063 20.2211 39.8796 19.7287C39.5576 19.2363 39.3967 18.6326 39.3967 17.9176C39.3967 17.3021 39.515 16.7955 39.7518 16.3977C39.9885 16 40.3081 15.6851 40.7106 15.4531C41.113 15.2211 41.5629 15.0459 42.06 14.9276C42.5572 14.8092 43.0638 14.7192 43.5799 14.6577C44.2333 14.5819 44.7636 14.5204 45.1708 14.473C45.578 14.4209 45.8739 14.3381 46.0586 14.2244C46.2433 14.1108 46.3356 13.9261 46.3356 13.6705V13.6207C46.3356 13.0005 46.1604 12.5199 45.81 12.179C45.4644 11.8381 44.9483 11.6676 44.2617 11.6676C43.5468 11.6676 42.9833 11.8262 42.5714 12.1435C42.1642 12.456 41.8825 12.804 41.7262 13.1875L39.7305 12.733C39.9672 12.0701 40.3129 11.535 40.7674 11.1278C41.2267 10.7159 41.7546 10.4176 42.3512 10.233C42.9478 10.0436 43.5752 9.94886 44.2333 9.94886C44.6689 9.94886 45.1306 10.0009 45.6183 10.1051C46.1107 10.2045 46.57 10.3892 46.9961 10.6591C47.427 10.929 47.7797 11.3149 48.0543 11.8168C48.329 12.3139 48.4663 12.9602 48.4663 13.7557V21H46.3924V19.5085H46.3072C46.1699 19.7831 45.9639 20.053 45.6893 20.3182C45.4147 20.5833 45.0619 20.8035 44.631 20.9787C44.2002 21.1539 43.6841 21.2415 43.0827 21.2415ZM43.5444 19.5369C44.1315 19.5369 44.6334 19.4209 45.0501 19.1889C45.4715 18.9569 45.7911 18.6539 46.0089 18.2798C46.2314 17.901 46.3427 17.4962 46.3427 17.0653V15.6591C46.2669 15.7348 46.1201 15.8059 45.9023 15.8722C45.6893 15.9337 45.4454 15.9882 45.1708 16.0355C44.8962 16.0781 44.6287 16.1184 44.3683 16.1562C44.1078 16.1894 43.89 16.2178 43.7148 16.2415C43.3029 16.2936 42.9265 16.3812 42.5856 16.5043C42.2494 16.6274 41.9795 16.8049 41.7759 17.0369C41.5771 17.2642 41.4776 17.5672 41.4776 17.946C41.4776 18.4716 41.6718 18.8693 42.06 19.1392C42.4483 19.4044 42.9431 19.5369 43.5444 19.5369ZM56.7947 21V10.0909H58.9183V21H56.7947ZM57.8672 8.40767C57.4979 8.40767 57.1806 8.28456 56.9155 8.03835C56.6551 7.7874 56.5249 7.48911 56.5249 7.14347C56.5249 6.79309 56.6551 6.49479 56.9155 6.24858C57.1806 5.99763 57.4979 5.87216 57.8672 5.87216C58.2365 5.87216 58.5514 5.99763 58.8118 6.24858C59.0769 6.49479 59.2095 6.79309 59.2095 7.14347C59.2095 7.48911 59.0769 7.7874 58.8118 8.03835C58.5514 8.28456 58.2365 8.40767 57.8672 8.40767ZM71.8491 25.3182C70.9826 25.3182 70.2369 25.2045 69.6119 24.9773C68.9916 24.75 68.485 24.4493 68.092 24.0753C67.699 23.7012 67.4054 23.2917 67.2113 22.8466L69.0366 22.0938C69.1644 22.3021 69.3349 22.5223 69.5479 22.7543C69.7657 22.991 70.0593 23.1922 70.4286 23.358C70.8027 23.5237 71.2833 23.6065 71.8704 23.6065C72.6753 23.6065 73.3406 23.41 73.8661 23.017C74.3917 22.6288 74.6545 22.0085 74.6545 21.1562V19.0114H74.5195C74.3917 19.2434 74.207 19.5014 73.9656 19.7855C73.7288 20.0696 73.4021 20.3158 72.9854 20.5241C72.5688 20.7325 72.0266 20.8366 71.359 20.8366C70.4973 20.8366 69.7208 20.6354 69.0295 20.233C68.3429 19.8258 67.7984 19.2268 67.396 18.4361C66.9982 17.6406 66.7994 16.6629 66.7994 15.5028C66.7994 14.3428 66.9959 13.3485 67.3888 12.5199C67.7866 11.6913 68.3311 11.0568 69.0224 10.6165C69.7137 10.1714 70.4973 9.94886 71.3732 9.94886C72.0503 9.94886 72.5972 10.0625 73.0138 10.2898C73.4305 10.5123 73.7549 10.7727 73.9869 11.071C74.2236 11.3693 74.4059 11.6321 74.5337 11.8594H74.69V10.0909H76.771V21.2415C76.771 22.179 76.5531 22.9484 76.1175 23.5497C75.6819 24.151 75.0924 24.5961 74.3491 24.8849C73.6104 25.1738 72.7771 25.3182 71.8491 25.3182ZM71.8278 19.0753C72.4386 19.0753 72.9547 18.9332 73.3761 18.6491C73.8022 18.3603 74.1242 17.9484 74.342 17.4134C74.5645 16.8736 74.6758 16.2273 74.6758 15.4744C74.6758 14.7405 74.5669 14.0942 74.3491 13.5355C74.1313 12.9768 73.8117 12.5412 73.3903 12.2287C72.9689 11.9115 72.448 11.7528 71.8278 11.7528C71.1886 11.7528 70.6559 11.9186 70.2298 12.25C69.8036 12.5767 69.4817 13.0218 69.2638 13.5852C69.0508 14.1487 68.9442 14.7784 68.9442 15.4744C68.9442 16.1894 69.0531 16.8168 69.271 17.3565C69.4888 17.8963 69.8107 18.3177 70.2369 18.6207C70.6677 18.9238 71.198 19.0753 71.8278 19.0753ZM89.7141 21.2202C88.6914 21.2202 87.7989 20.9858 87.0366 20.517C86.2743 20.0483 85.6824 19.3925 85.261 18.5497C84.8396 17.7069 84.6289 16.7221 84.6289 15.5952C84.6289 14.4635 84.8396 13.474 85.261 12.6264C85.6824 11.7789 86.2743 11.1207 87.0366 10.652C87.7989 10.1832 88.6914 9.94886 89.7141 9.94886C90.7369 9.94886 91.6294 10.1832 92.3917 10.652C93.154 11.1207 93.7459 11.7789 94.1673 12.6264C94.5887 13.474 94.7994 14.4635 94.7994 15.5952C94.7994 16.7221 94.5887 17.7069 94.1673 18.5497C93.7459 19.3925 93.154 20.0483 92.3917 20.517C91.6294 20.9858 90.7369 21.2202 89.7141 21.2202ZM89.7212 19.4375C90.3841 19.4375 90.9334 19.2623 91.369 18.9119C91.8046 18.5616 92.1265 18.0952 92.3349 17.5128C92.5479 16.9304 92.6545 16.2888 92.6545 15.5881C92.6545 14.892 92.5479 14.2528 92.3349 13.6705C92.1265 13.0833 91.8046 12.6122 91.369 12.2571C90.9334 11.902 90.3841 11.7244 89.7212 11.7244C89.0536 11.7244 88.4996 11.902 88.0593 12.2571C87.6237 12.6122 87.2994 13.0833 87.0863 13.6705C86.878 14.2528 86.7738 14.892 86.7738 15.5881C86.7738 16.2888 86.878 16.9304 87.0863 17.5128C87.2994 18.0952 87.6237 18.5616 88.0593 18.9119C88.4996 19.2623 89.0536 19.4375 89.7212 19.4375ZM104.793 14.5227V21H102.67V10.0909H104.708V11.8665H104.843C105.094 11.2888 105.487 10.8248 106.022 10.4744C106.562 10.1241 107.241 9.94886 108.06 9.94886C108.804 9.94886 109.455 10.1051 110.013 10.4176C110.572 10.7254 111.005 11.1847 111.313 11.7955C111.621 12.4062 111.775 13.1615 111.775 14.0611V21H109.651V14.3168C109.651 13.526 109.445 12.9081 109.033 12.4631C108.621 12.0133 108.056 11.7884 107.336 11.7884C106.844 11.7884 106.406 11.8949 106.022 12.108C105.643 12.321 105.343 12.6335 105.12 13.0455C104.902 13.4527 104.793 13.9451 104.793 14.5227ZM128.227 10.2756C128.151 9.60322 127.838 9.08239 127.289 8.71307C126.74 8.33902 126.049 8.15199 125.215 8.15199C124.619 8.15199 124.103 8.24669 123.667 8.43608C123.231 8.62074 122.893 8.87642 122.651 9.20312C122.415 9.52509 122.296 9.89205 122.296 10.304C122.296 10.6496 122.377 10.9479 122.538 11.1989C122.703 11.4498 122.919 11.6605 123.184 11.831C123.454 11.9967 123.743 12.1364 124.05 12.25C124.358 12.3589 124.654 12.4489 124.938 12.5199L126.359 12.8892C126.823 13.0028 127.299 13.1567 127.786 13.3509C128.274 13.545 128.726 13.8007 129.143 14.1179C129.559 14.4351 129.896 14.8281 130.151 15.2969C130.412 15.7656 130.542 16.3267 130.542 16.9801C130.542 17.804 130.329 18.5355 129.903 19.1747C129.481 19.8139 128.868 20.3182 128.063 20.6875C127.263 21.0568 126.295 21.2415 125.158 21.2415C124.069 21.2415 123.127 21.0687 122.332 20.723C121.536 20.3774 120.914 19.8873 120.464 19.2528C120.014 18.6136 119.765 17.8561 119.718 16.9801H121.92C121.962 17.5057 122.133 17.9437 122.431 18.294C122.734 18.6397 123.12 18.8977 123.589 19.0682C124.062 19.2339 124.581 19.3168 125.144 19.3168C125.764 19.3168 126.316 19.2197 126.799 19.0256C127.287 18.8267 127.67 18.5521 127.95 18.2017C128.229 17.8466 128.369 17.4323 128.369 16.9588C128.369 16.5279 128.246 16.1752 127.999 15.9006C127.758 15.6259 127.429 15.3987 127.012 15.2188C126.6 15.0388 126.134 14.8802 125.613 14.7429L123.894 14.2741C122.729 13.9569 121.806 13.4905 121.124 12.875C120.447 12.2595 120.109 11.4451 120.109 10.4318C120.109 9.59375 120.336 8.86222 120.79 8.23722C121.245 7.61222 121.861 7.12689 122.637 6.78125C123.414 6.43087 124.29 6.25568 125.265 6.25568C126.25 6.25568 127.119 6.4285 127.871 6.77415C128.629 7.11979 129.226 7.59564 129.661 8.2017C130.097 8.80303 130.324 9.49432 130.343 10.2756H128.227ZM138.494 21V10.0909H140.618V21H138.494ZM139.566 8.40767C139.197 8.40767 138.88 8.28456 138.615 8.03835C138.354 7.7874 138.224 7.48911 138.224 7.14347C138.224 6.79309 138.354 6.49479 138.615 6.24858C138.88 5.99763 139.197 5.87216 139.566 5.87216C139.936 5.87216 140.251 5.99763 140.511 6.24858C140.776 6.49479 140.909 6.79309 140.909 7.14347C140.909 7.48911 140.776 7.7874 140.511 8.03835C140.251 8.28456 139.936 8.40767 139.566 8.40767ZM153.058 21.2131C152.178 21.2131 151.392 20.9882 150.7 20.5384C150.014 20.0838 149.474 19.4375 149.081 18.5994C148.693 17.7566 148.499 16.7457 148.499 15.5668C148.499 14.3878 148.695 13.3793 149.088 12.5412C149.486 11.7031 150.03 11.0616 150.722 10.6165C151.413 10.1714 152.196 9.94886 153.072 9.94886C153.75 9.94886 154.294 10.0625 154.706 10.2898C155.123 10.5123 155.445 10.7727 155.672 11.071C155.904 11.3693 156.084 11.6321 156.212 11.8594H156.339V6.45455H158.463V21H156.389V19.3026H156.212C156.084 19.5346 155.899 19.7997 155.658 20.098C155.421 20.3963 155.094 20.6567 154.678 20.8793C154.261 21.1018 153.721 21.2131 153.058 21.2131ZM153.527 19.402C154.138 19.402 154.654 19.241 155.075 18.919C155.501 18.5923 155.823 18.1402 156.041 17.5625C156.264 16.9848 156.375 16.3125 156.375 15.5455C156.375 14.7879 156.266 14.125 156.048 13.5568C155.83 12.9886 155.511 12.5459 155.089 12.2287C154.668 11.9115 154.147 11.7528 153.527 11.7528C152.888 11.7528 152.355 11.9186 151.929 12.25C151.503 12.5814 151.181 13.0336 150.963 13.6065C150.75 14.1795 150.643 14.8258 150.643 15.5455C150.643 16.2746 150.752 16.9304 150.97 17.5128C151.188 18.0952 151.51 18.5568 151.936 18.8977C152.367 19.2339 152.897 19.402 153.527 19.402ZM171.696 21.2202C170.621 21.2202 169.695 20.9905 168.919 20.5312C168.147 20.0672 167.55 19.4162 167.129 18.5781C166.712 17.7353 166.504 16.7481 166.504 15.6165C166.504 14.4991 166.712 13.5142 167.129 12.6619C167.55 11.8097 168.137 11.1444 168.89 10.6662C169.648 10.188 170.533 9.94886 171.547 9.94886C172.162 9.94886 172.759 10.0507 173.336 10.2543C173.914 10.4579 174.432 10.7775 174.892 11.2131C175.351 11.6487 175.713 12.2145 175.978 12.9105C176.243 13.6018 176.376 14.4422 176.376 15.4318V16.1847H167.704V14.5938H174.295C174.295 14.035 174.181 13.5402 173.954 13.1094C173.727 12.6738 173.407 12.3305 172.995 12.0795C172.588 11.8286 172.11 11.7031 171.561 11.7031C170.964 11.7031 170.443 11.8499 169.998 12.1435C169.558 12.4323 169.217 12.8111 168.975 13.2798C168.739 13.7438 168.62 14.2481 168.62 14.7926V16.0355C168.62 16.7647 168.748 17.3849 169.004 17.8963C169.264 18.4077 169.627 18.7983 170.091 19.0682C170.555 19.3333 171.097 19.4659 171.717 19.4659C172.119 19.4659 172.486 19.4091 172.818 19.2955C173.149 19.1771 173.436 19.0019 173.677 18.7699C173.919 18.5379 174.103 18.2514 174.231 17.9105L176.241 18.2727C176.08 18.8646 175.791 19.383 175.375 19.8281C174.963 20.2685 174.444 20.6117 173.819 20.858C173.199 21.0994 172.491 21.2202 171.696 21.2202ZM184.403 21V6.45455H186.526V11.8594H186.654C186.777 11.6321 186.955 11.3693 187.187 11.071C187.419 10.7727 187.741 10.5123 188.153 10.2898C188.565 10.0625 189.109 9.94886 189.786 9.94886C190.667 9.94886 191.453 10.1714 192.144 10.6165C192.835 11.0616 193.378 11.7031 193.771 12.5412C194.168 13.3793 194.367 14.3878 194.367 15.5668C194.367 16.7457 194.171 17.7566 193.778 18.5994C193.385 19.4375 192.845 20.0838 192.158 20.5384C191.472 20.9882 190.688 21.2131 189.808 21.2131C189.145 21.2131 188.603 21.1018 188.181 20.8793C187.764 20.6567 187.438 20.3963 187.201 20.098C186.964 19.7997 186.782 19.5346 186.654 19.3026H186.477V21H184.403ZM186.484 15.5455C186.484 16.3125 186.595 16.9848 186.817 17.5625C187.04 18.1402 187.362 18.5923 187.783 18.919C188.205 19.241 188.721 19.402 189.332 19.402C189.966 19.402 190.496 19.2339 190.923 18.8977C191.349 18.5568 191.671 18.0952 191.888 17.5128C192.111 16.9304 192.222 16.2746 192.222 15.5455C192.222 14.8258 192.113 14.1795 191.896 13.6065C191.683 13.0336 191.361 12.5814 190.93 12.25C190.504 11.9186 189.971 11.7528 189.332 11.7528C188.716 11.7528 188.195 11.9115 187.769 12.2287C187.348 12.5459 187.028 12.9886 186.81 13.5568C186.593 14.125 186.484 14.7879 186.484 15.5455ZM203.223 25.0909C202.906 25.0909 202.617 25.0649 202.357 25.0128C202.096 24.9654 201.902 24.9134 201.774 24.8565L202.286 23.1165C202.674 23.2206 203.019 23.2656 203.322 23.2514C203.625 23.2372 203.893 23.1236 204.125 22.9105C204.362 22.6974 204.57 22.3494 204.75 21.8665L205.013 21.142L201.021 10.0909H203.294L206.057 18.5568H206.17L208.933 10.0909H211.213L206.717 22.456C206.509 23.0241 206.244 23.5047 205.922 23.8977C205.6 24.2955 205.216 24.5938 204.771 24.7926C204.326 24.9915 203.81 25.0909 203.223 25.0909ZM226.812 10.2756C226.737 9.60322 226.424 9.08239 225.875 8.71307C225.326 8.33902 224.634 8.15199 223.801 8.15199C223.205 8.15199 222.688 8.24669 222.253 8.43608C221.817 8.62074 221.479 8.87642 221.237 9.20312C221 9.52509 220.882 9.89205 220.882 10.304C220.882 10.6496 220.963 10.9479 221.124 11.1989C221.289 11.4498 221.505 11.6605 221.77 11.831C222.04 11.9967 222.329 12.1364 222.636 12.25C222.944 12.3589 223.24 12.4489 223.524 12.5199L224.945 12.8892C225.409 13.0028 225.884 13.1567 226.372 13.3509C226.86 13.545 227.312 13.8007 227.729 14.1179C228.145 14.4351 228.482 14.8281 228.737 15.2969C228.998 15.7656 229.128 16.3267 229.128 16.9801C229.128 17.804 228.915 18.5355 228.489 19.1747C228.067 19.8139 227.454 20.3182 226.649 20.6875C225.849 21.0568 224.881 21.2415 223.744 21.2415C222.655 21.2415 221.713 21.0687 220.918 20.723C220.122 20.3774 219.5 19.8873 219.05 19.2528C218.6 18.6136 218.351 17.8561 218.304 16.9801H220.506C220.548 17.5057 220.719 17.9437 221.017 18.294C221.32 18.6397 221.706 18.8977 222.175 19.0682C222.648 19.2339 223.167 19.3168 223.73 19.3168C224.35 19.3168 224.902 19.2197 225.385 19.0256C225.873 18.8267 226.256 18.5521 226.536 18.2017C226.815 17.8466 226.955 17.4323 226.955 16.9588C226.955 16.5279 226.831 16.1752 226.585 15.9006C226.344 15.6259 226.015 15.3987 225.598 15.2188C225.186 15.0388 224.72 14.8802 224.199 14.7429L222.48 14.2741C221.315 13.9569 220.392 13.4905 219.71 12.875C219.033 12.2595 218.695 11.4451 218.695 10.4318C218.695 9.59375 218.922 8.86222 219.376 8.23722C219.831 7.61222 220.446 7.12689 221.223 6.78125C222 6.43087 222.875 6.25568 223.851 6.25568C224.836 6.25568 225.705 6.4285 226.457 6.77415C227.215 7.11979 227.812 7.59564 228.247 8.2017C228.683 8.80303 228.91 9.49432 228.929 10.2756H226.812ZM237.08 21V10.0909H239.203V21H237.08ZM238.152 8.40767C237.783 8.40767 237.466 8.28456 237.201 8.03835C236.94 7.7874 236.81 7.48911 236.81 7.14347C236.81 6.79309 236.94 6.49479 237.201 6.24858C237.466 5.99763 237.783 5.87216 238.152 5.87216C238.522 5.87216 238.837 5.99763 239.097 6.24858C239.362 6.49479 239.495 6.79309 239.495 7.14347C239.495 7.48911 239.362 7.7874 239.097 8.03835C238.837 8.28456 238.522 8.40767 238.152 8.40767ZM251.644 21.2131C250.763 21.2131 249.978 20.9882 249.286 20.5384C248.6 20.0838 248.06 19.4375 247.667 18.5994C247.279 17.7566 247.085 16.7457 247.085 15.5668C247.085 14.3878 247.281 13.3793 247.674 12.5412C248.072 11.7031 248.616 11.0616 249.308 10.6165C249.999 10.1714 250.782 9.94886 251.658 9.94886C252.335 9.94886 252.88 10.0625 253.292 10.2898C253.709 10.5123 254.031 10.7727 254.258 11.071C254.49 11.3693 254.67 11.6321 254.798 11.8594H254.925V6.45455H257.049V21H254.975V19.3026H254.798C254.67 19.5346 254.485 19.7997 254.244 20.098C254.007 20.3963 253.68 20.6567 253.263 20.8793C252.847 21.1018 252.307 21.2131 251.644 21.2131ZM252.113 19.402C252.724 19.402 253.24 19.241 253.661 18.919C254.087 18.5923 254.409 18.1402 254.627 17.5625C254.85 16.9848 254.961 16.3125 254.961 15.5455C254.961 14.7879 254.852 14.125 254.634 13.5568C254.416 12.9886 254.097 12.5459 253.675 12.2287C253.254 11.9115 252.733 11.7528 252.113 11.7528C251.474 11.7528 250.941 11.9186 250.515 12.25C250.089 12.5814 249.767 13.0336 249.549 13.6065C249.336 14.1795 249.229 14.8258 249.229 15.5455C249.229 16.2746 249.338 16.9304 249.556 17.5128C249.774 18.0952 250.096 18.5568 250.522 18.8977C250.953 19.2339 251.483 19.402 252.113 19.402ZM270.282 21.2202C269.207 21.2202 268.281 20.9905 267.505 20.5312C266.733 20.0672 266.136 19.4162 265.715 18.5781C265.298 17.7353 265.09 16.7481 265.09 15.6165C265.09 14.4991 265.298 13.5142 265.715 12.6619C266.136 11.8097 266.723 11.1444 267.476 10.6662C268.234 10.188 269.119 9.94886 270.132 9.94886C270.748 9.94886 271.345 10.0507 271.922 10.2543C272.5 10.4579 273.018 10.7775 273.478 11.2131C273.937 11.6487 274.299 12.2145 274.564 12.9105C274.829 13.6018 274.962 14.4422 274.962 15.4318V16.1847H266.29V14.5938H272.881C272.881 14.035 272.767 13.5402 272.54 13.1094C272.313 12.6738 271.993 12.3305 271.581 12.0795C271.174 11.8286 270.696 11.7031 270.147 11.7031C269.55 11.7031 269.029 11.8499 268.584 12.1435C268.144 12.4323 267.803 12.8111 267.561 13.2798C267.325 13.7438 267.206 14.2481 267.206 14.7926V16.0355C267.206 16.7647 267.334 17.3849 267.59 17.8963C267.85 18.4077 268.212 18.7983 268.676 19.0682C269.141 19.3333 269.683 19.4659 270.303 19.4659C270.705 19.4659 271.072 19.4091 271.404 19.2955C271.735 19.1771 272.022 19.0019 272.263 18.7699C272.505 18.5379 272.689 18.2514 272.817 17.9105L274.827 18.2727C274.666 18.8646 274.377 19.383 273.961 19.8281C273.549 20.2685 273.03 20.6117 272.405 20.858C271.785 21.0994 271.077 21.2202 270.282 21.2202Z" fill="#F5C909"/>
</g>
<defs>
<filter id="filter0_d_68_36" x="19.1321" y="3.87216" width="259.83" height="25.446" filterUnits="userSpaceOnUse" color-interpolation-filters="sRGB">
<feFlood flood-opacity="0" result="BackgroundImageFix"/>
<feColorMatrix in="SourceAlpha" type="matrix" values="0 0 0 0 0 0 0 0 0 0 0 0 0 0 0 0 0 0 127 0" result="hardAlpha"/>
<feOffset dx="1" dy="1"/>
<feGaussianBlur stdDeviation="1.5"/>
<feComposite in2="hardAlpha" operator="out"/>
<feColorMatrix type="matrix" values="0 0 0 0 0 0 0 0 0 0 0 0 0 0 0 0 0 0 0.61 0"/>
<feBlend mode="normal" in2="BackgroundImageFix" result="effect1_dropShadow_68_36"/>
<feBlend mode="normal" in="SourceGraphic" in2="effect1_dropShadow_68_36" result="shape"/>
</filter>
</defs>
</svg>
